<?xml version="1.0" standalone="no"?>
<!DOCTYPE svg PUBLIC "-//W3C//DTD SVG 20010904//EN"
 "http://www.w3.org/TR/2001/REC-SVG-20010904/DTD/svg10.dtd">
<svg version="1.0" xmlns="http://www.w3.org/2000/svg"
  viewBox="0 0 1258.000000 298.000000"
 preserveAspectRatio="xMidYMid meet">
<metadata>
Created by potrace 1.15, written by Peter Selinger 2001-2017
</metadata>
<g transform="translate(0.000000,298.000000) scale(0.100000,-0.100000)"
fill="#000000" stroke="none">
<path d="M7678 2175 c-226 -55 -422 -234 -497 -454 -100 -292 7 -613 266 -798
255 -182 633 -155 866 61 l37 35 0 244 c0 224 -2 245 -18 260 -26 23 -58 21
-76 -5 -13 -19 -16 -59 -16 -239 l0 -217 -67 -46 c-38 -25 -99 -58 -138 -73
-63 -24 -83 -27 -195 -27 -113 0 -132 3 -195 27 -176 69 -297 193 -359 366
-75 208 -22 437 138 596 125 125 245 175 420 175 85 0 114 -5 181 -28 79 -28
181 -89 219 -131 36 -39 106 -19 106 32 0 57 -207 188 -350 221 -80 19 -245
19 -322 1z"/>
<path d="M646 2148 c-14 -20 -16 -99 -16 -658 0 -691 -1 -680 55 -680 53 0 55
10 55 286 l0 254 138 0 137 0 119 -136 c132 -150 206 -218 311 -288 85 -57
222 -103 332 -112 99 -8 123 2 123 51 0 43 -14 51 -105 57 -91 7 -198 46 -288
104 -66 43 -347 314 -347 335 0 4 28 23 61 40 82 44 141 105 181 187 31 63 33
73 33 177 0 102 -2 114 -29 168 -55 109 -136 181 -243 218 -49 17 -84 19 -279
19 -219 0 -223 0 -238 -22z m478 -98 c69 -26 148 -99 178 -165 16 -36 23 -69
23 -120 0 -123 -70 -226 -190 -281 -50 -23 -61 -24 -221 -22 l-169 3 -3 290
c-1 159 0 295 3 302 3 10 45 13 164 13 137 0 168 -3 215 -20z"/>
<path d="M3303 1850 c-75 -11 -134 -43 -192 -105 -77 -81 -96 -129 -96 -245 0
-88 3 -101 33 -162 37 -75 100 -138 172 -172 36 -17 64 -21 145 -21 93 0 105
2 167 33 96 47 131 98 92 136 -23 24 -55 19 -100 -13 -51 -37 -95 -51 -161
-51 -65 0 -107 16 -158 61 -131 115 -104 328 51 407 88 44 172 37 259 -22 58
-40 84 -45 108 -18 23 25 21 45 -7 79 -60 71 -192 110 -313 93z"/>
<path d="M8921 1848 c-108 -17 -208 -96 -259 -206 -23 -49 -27 -70 -27 -147 0
-82 3 -97 33 -157 36 -74 96 -133 170 -170 40 -20 63 -23 152 -23 89 0 112 3
152 23 74 37 134 96 170 170 30 61 33 74 33 162 0 85 -3 101 -29 153 -74 146
-227 222 -395 195z m176 -127 c84 -42 134 -118 141 -213 4 -48 0 -67 -22 -113
-65 -133 -211 -183 -337 -117 -152 79 -183 265 -65 390 75 80 189 101 283 53z"/>
<path d="M2496 1743 c-61 -59 -207 -201 -323 -316 -225 -221 -238 -240 -189
-272 35 -23 58 -10 172 98 l101 96 159 2 159 1 3 -91 c2 -83 5 -92 26 -106 27
-18 69 -7 80 20 3 9 6 155 6 324 0 261 -2 310 -16 329 -30 43 -58 30 -178 -85z
m84 -183 l0 -100 -100 0 c-55 0 -100 2 -100 5 0 5 192 194 198 195 1 0 2 -45
2 -100z"/>
<path d="M3976 1834 c-14 -13 -16 -58 -16 -339 l0 -325 24 -15 c27 -18 69 -7
80 20 3 9 6 77 6 151 l0 134 230 0 230 0 0 -140 c0 -127 2 -142 20 -160 24
-24 38 -25 68 -4 22 15 22 16 22 339 0 351 -1 355 -55 355 -44 0 -55 -33 -55
-162 l0 -118 -230 0 -230 0 0 123 c0 107 -2 126 -18 140 -23 21 -56 22 -76 1z"/>
<path d="M5060 1830 c-19 -19 -20 -33 -20 -334 0 -273 2 -317 16 -330 13 -14
54 -16 289 -16 261 0 275 1 285 19 14 27 13 47 -6 65 -13 14 -50 16 -245 16
l-229 0 0 100 0 100 175 0 c162 0 177 2 195 20 11 11 20 27 20 35 0 8 -9 24
-20 35 -18 18 -33 20 -195 20 l-175 0 0 90 0 90 228 0 c209 0 230 2 245 18 23
26 21 58 -5 76 -19 14 -63 16 -280 16 -245 0 -259 -1 -278 -20z"/>
<path d="M5982 1834 c-22 -15 -22 -16 -22 -334 0 -276 2 -321 16 -334 13 -14
53 -16 282 -16 147 0 272 4 278 8 22 14 27 53 8 73 -16 18 -33 19 -246 19
l-228 0 0 280 c0 267 -1 281 -20 300 -24 24 -38 25 -68 4z"/>
<path d="M9692 1834 c-22 -15 -22 -16 -22 -339 l0 -325 24 -15 c30 -20 73 -5
81 27 3 13 6 70 8 127 l2 104 85 -1 85 -2 126 -131 c123 -128 126 -130 165
-127 34 3 39 6 42 31 3 24 -12 45 -93 132 l-96 104 43 19 c87 38 137 129 123
221 -9 60 -25 90 -73 133 -53 48 -106 58 -310 58 -135 0 -172 -3 -190 -16z
m427 -120 c57 -47 50 -137 -13 -175 -27 -16 -52 -19 -178 -19 l-148 0 0 110 0
110 154 0 c151 0 155 -1 185 -26z"/>
<path d="M10630 1830 c-19 -19 -20 -33 -20 -328 0 -262 2 -311 16 -330 15 -22
17 -22 288 -22 287 0 296 1 296 46 0 51 -13 54 -261 54 l-229 0 0 100 0 100
173 0 c188 0 217 7 217 55 0 48 -29 55 -217 55 l-173 0 0 90 0 90 228 0 c209
0 230 2 245 18 23 26 21 58 -5 76 -19 14 -63 16 -280 16 -245 0 -259 -1 -278
-20z"/>
<path d="M11550 1830 c-19 -19 -20 -33 -20 -334 0 -274 2 -317 16 -330 14 -14
51 -16 292 -14 l277 3 9 27 c8 22 6 32 -9 48 -17 19 -30 20 -247 20 l-228 0 0
100 0 100 175 0 c162 0 177 2 195 20 11 11 20 27 20 35 0 8 -9 24 -20 35 -18
18 -33 20 -195 20 l-175 0 0 90 0 90 228 0 c209 0 230 2 245 18 22 25 21 48
-3 72 -19 19 -33 20 -280 20 -247 0 -261 -1 -280 -20z"/>
</g>
</svg>
